<svg xmlns="http://www.w3.org/2000/svg" width="25" height="25" viewBox="0 0 25 25" fill="none">
<path d="M21.4742 17.0165C20.7412 17.742 19.5526 17.742 18.8196 17.0165L15.5834 13.8136C14.8503 13.0881 14.8503 11.9119 15.5834 11.1864L18.8196 7.98348C19.5526 7.25798 20.7412 7.25798 21.4742 7.98348L24.7106 11.1864C25.4436 11.9119 25.4436 13.0881 24.7106 13.8136L21.4742 17.0165ZM6.44062 17.0165C5.70758 17.742 4.51907 17.742 3.78604 17.0165L0.549782 13.8136C-0.18326 13.0881 -0.183261 11.9119 0.549781 11.1864L3.78604 7.98348C4.51907 7.25798 5.70758 7.25798 6.44062 7.98348L9.67687 11.1864C10.4099 11.9119 10.4099 13.0881 9.67687 13.8136L6.44062 17.0165ZM13.9575 24.4558C13.2244 25.1814 12.0359 25.1814 11.3028 24.4558L8.06659 21.253C7.33355 20.5275 7.33355 19.3512 8.06659 18.6257L11.3028 15.4229C12.0359 14.6973 13.2244 14.6973 13.9575 15.4229L17.1937 18.6257C17.9267 19.3512 17.9267 20.5275 17.1937 21.253L13.9575 24.4558ZM13.9575 9.57716C13.2244 10.3026 12.0359 10.3027 11.3028 9.57716L8.06659 6.37425C7.33355 5.64876 7.33355 4.47252 8.06659 3.74702L11.3028 0.544117C12.0359 -0.181371 13.2244 -0.181373 13.9575 0.544116L17.1937 3.74702C17.9267 4.47252 17.9267 5.64876 17.1937 6.37425L13.9575 9.57716Z" fill="url(#paint0_linear_3183_1024)"/>
<defs>
<linearGradient id="paint0_linear_3183_1024" x1="24.5956" y1="-1.5411" x2="-0.770602" y2="24.2419" gradientUnits="userSpaceOnUse">
<stop stop-color="#97268E"/>
<stop offset="1" stop-color="#7C96C9"/>
</linearGradient>
</defs>
</svg>